<mxfile host="app.diagrams.net" modified="2023-12-09T17:40:43.652Z" agent="Mozilla/5.0 (Macintosh; Intel Mac OS X 10_15_7) AppleWebKit/537.36 (KHTML, like Gecko) Chrome/120.0.0.0 Safari/537.36" version="22.1.7" etag="ZwaRkmAFpf7fOKcOMpzS" type="github">
  <diagram name="페이지-1" id="G_kbdeWdyys_cpiBc8eZ">
    <mxGraphModel>
      <root>
        <mxCell id="0" />
        <mxCell id="1" parent="0" />
      </root>
    </mxGraphModel>
  </diagram>
</mxfile>
